Coordinates
version=1
nRows=54
nColumns=12
inDegrees=yes

Units are S.I. units (second, meters, Newtons, ...)
Angles are in degrees

endheader
time	SC_y	SC_z	SC_x	AC_y	AC_z	AC_x	GH_y	GH_z	GH_yy	EL_x	PS_y
       0.0               -30.8          7.728          28.22           33.7         -17.02         -18.83         -31.74          69.74           53.0          34.57          104.6
 0.0008281               -30.8          7.728          28.22           33.7         -17.02         -18.82         -31.73          69.73          53.01          34.58          104.6
  0.001656               -30.8          7.728          28.22          33.71         -17.02         -18.82         -31.72          69.73          53.01          34.59          104.6
  0.002484               -30.8          7.728          28.21          33.71         -17.01         -18.81         -31.71          69.73          53.02           34.6          104.6
  0.003313               -30.8          7.727          28.21          33.72         -17.01         -18.81          -31.7          69.73          53.03           34.6          104.6
  0.004141               -30.8          7.727           28.2          33.72         -17.01         -18.81         -31.69          69.73          53.04          34.61          104.6
  0.004969               -30.8          7.727           28.2          33.73         -17.01          -18.8         -31.68          69.73          53.05          34.62          104.6
  0.005797               -30.8          7.727          28.19          33.74         -17.01          -18.8         -31.66          69.72          53.05          34.63          104.6
  0.006625              -30.79          7.726          28.18          33.75          -17.0         -18.79         -31.65          69.72          53.06          34.64          104.6
  0.007453              -30.79          7.726          28.18          33.76          -17.0         -18.78         -31.64          69.72          53.08          34.65          104.5
  0.008281              -30.79          7.726          28.17          33.76          -17.0         -18.78         -31.62          69.72          53.09          34.67          104.5
  0.009109              -30.79          7.725          28.16          33.77         -16.99         -18.77         -31.61          69.72           53.1          34.68          104.5
  0.009938              -30.79          7.725          28.15          33.78         -16.99         -18.76         -31.59          69.71          53.11          34.69          104.5
   0.01077              -30.79          7.725          28.14           33.8         -16.99         -18.75         -31.57          69.71          53.13          34.71          104.5
   0.01159              -30.79          7.724          28.13          33.81         -16.98         -18.74         -31.55          69.71          53.14          34.73          104.5
   0.01242              -30.78          7.724          28.12          33.82         -16.98         -18.74         -31.53           69.7          53.16          34.74          104.5
   0.01325              -30.78          7.723          28.11          33.84         -16.97         -18.72         -31.51           69.7          53.18          34.76          104.5
   0.01408              -30.78          7.723           28.1          33.85         -16.97         -18.71         -31.48           69.7           53.2          34.79          104.5
   0.01491              -30.78          7.722          28.09          33.87         -16.96          -18.7         -31.45          69.69          53.22          34.81          104.4
   0.01573              -30.77          7.722          28.07          33.89         -16.95         -18.69         -31.42          69.69          53.25          34.84          104.4
   0.01656              -30.77          7.721          28.06          33.91         -16.95         -18.67         -31.39          69.68          53.27          34.86          104.4
   0.01739              -30.77           7.72          28.04          33.93         -16.94         -18.66         -31.35          69.68           53.3          34.89          104.4
   0.01822              -30.76          7.719          28.02          33.96         -16.93         -18.64         -31.31          69.67          53.33          34.93          104.3
   0.01905              -30.76          7.718           28.0          33.99         -16.92         -18.62         -31.26          69.66          53.37          34.97          104.3
   0.01988              -30.76          7.717          27.97          34.02         -16.91         -18.59         -31.21          69.66          53.41          35.01          104.3
    0.0207              -30.75          7.716          27.94          34.05          -16.9         -18.57         -31.15          69.65          53.45          35.06          104.3
   0.02153              -30.74          7.715          27.91          34.09         -16.88         -18.54         -31.09          69.64           53.5          35.11          104.2
   0.02236              -30.74          7.713          27.88          34.14         -16.87         -18.51         -31.02          69.63          53.56          35.17          104.2
   0.02319              -30.73          7.711          27.84          34.19         -16.85         -18.47         -30.94          69.62          53.62          35.24          104.1
   0.02402              -30.72           7.71           27.8          34.24         -16.83         -18.43         -30.84           69.6          53.69          35.31          104.1
   0.02484              -30.71          7.707          27.75          34.31         -16.81         -18.39         -30.74          69.59          53.77           35.4          104.0
   0.02567               -30.7          7.705          27.69          34.38         -16.79         -18.33         -30.62          69.57          53.87           35.5          103.9
    0.0265              -30.69          7.702          27.62          34.47         -16.76         -18.27         -30.48          69.55          53.98          35.62          103.9
   0.02733              -30.68          7.699          27.54          34.57         -16.72          -18.2         -30.32          69.52           54.1          35.75          103.8
   0.02816              -30.66          7.695          27.45          34.68         -16.68         -18.11         -30.13           69.5          54.25          35.91          103.6
   0.02898              -30.64           7.69          27.35          34.82         -16.64         -18.02          -29.9          69.46          54.42          36.09          103.5
   0.02981              -30.62          7.684          27.22          34.98         -16.58          -17.9         -29.64          69.42          54.63          36.31          103.4
   0.03064              -30.59          7.678          27.07          35.18         -16.51         -17.76         -29.32          69.38          54.88          36.57          103.2
   0.03147              -30.55           7.67          26.88          35.42         -16.43         -17.59         -28.94          69.32          55.18          36.89          102.9
    0.0323              -30.51           7.66          26.66          35.71         -16.33         -17.38         -28.47          69.25          55.54          37.28          102.7
   0.03313              -30.46          7.648          26.38          36.06         -16.21         -17.12         -27.89          69.16          55.99          37.76          102.3
   0.03395               -30.4          7.633          26.03          36.51         -16.06          -16.8         -27.16          69.05          56.55          38.36          101.9
   0.03478              -30.31          7.614          25.59          37.07         -15.87          -16.4         -26.25          68.92          57.26          39.12          101.3
   0.03561              -30.21           7.59          25.04          37.78         -15.63         -15.89         -25.09          68.75          58.16          40.08          100.6
   0.03644              -30.08          7.559          24.33          38.69         -15.32         -15.23         -23.61          68.53          59.31          41.31          99.75
   0.03727              -29.91          7.519          23.41          39.86         -14.92         -14.39         -21.71          68.24          60.79          42.88          98.61
   0.03809              -29.69          7.468          22.25          41.36         -14.41         -13.31         -19.28          67.88          62.68           44.9          97.15
   0.03892              -29.42          7.404          20.78          43.23         -13.76         -11.96         -16.22          67.43          65.06          47.43          95.33
   0.03975              -29.09          7.327           19.0          45.52         -12.98         -10.31          -12.5          66.87          67.95          50.52           93.1
   0.04058              -28.71          7.237          16.93          48.18         -12.08         -8.396         -8.184          66.23           71.3           54.1          90.52
   0.04141              -28.29          7.139          14.69          51.05          -11.1         -6.327          -3.51          65.53          74.94          57.97          87.72
   0.04223              -27.88          7.041          12.44          53.93         -10.11         -4.257          1.163          64.84          78.57          61.85          84.92
   0.04306              -27.49          6.951          10.37          56.58         -9.209         -2.346          5.479           64.2          81.92          65.42          82.34
   0.04389              -27.16          6.874          8.588          58.87         -8.427        -0.6965          9.203          63.64          84.82          68.51          80.11
